<mxfile host="app.diagrams.net" modified="2023-11-16T01:26:29.920Z" agent="Mozilla/5.0 (Macintosh; Intel Mac OS X 10_15_7) AppleWebKit/537.36 (KHTML, like Gecko) Chrome/117.0.0.0 Safari/537.36" etag="6KShdLymEz3BRUbufS6R" version="22.1.2" type="device">
  <diagram id="R2lEEEUBdFMjLlhIrx00" name="Page-1">
    <mxGraphModel dx="4002" dy="1440" grid="1" gridSize="10" guides="1" tooltips="1" connect="1" arrows="1" fold="1" page="1" pageScale="1" pageWidth="850" pageHeight="1100" math="0" shadow="0" extFonts="Permanent Marker^https://fonts.googleapis.com/css?family=Permanent+Marker">
      <root>
        <mxCell id="0" />
        <mxCell id="1" parent="0" />
        <mxCell id="mLOQmlMNwlD4sz5E9SZv-15" style="edgeStyle=orthogonalEdgeStyle;rounded=0;orthogonalLoop=1;jettySize=auto;html=1;exitX=1;exitY=0.5;exitDx=0;exitDy=0;endArrow=none;endFill=0;" parent="1" source="mLOQmlMNwlD4sz5E9SZv-1" target="mLOQmlMNwlD4sz5E9SZv-13" edge="1">
          <mxGeometry relative="1" as="geometry" />
        </mxCell>
        <mxCell id="mLOQmlMNwlD4sz5E9SZv-23" style="edgeStyle=orthogonalEdgeStyle;rounded=0;orthogonalLoop=1;jettySize=auto;html=1;exitX=0.5;exitY=1;exitDx=0;exitDy=0;entryX=0.5;entryY=0;entryDx=0;entryDy=0;endArrow=none;endFill=0;" parent="1" source="mLOQmlMNwlD4sz5E9SZv-1" target="mLOQmlMNwlD4sz5E9SZv-19" edge="1">
          <mxGeometry relative="1" as="geometry" />
        </mxCell>
        <mxCell id="mLOQmlMNwlD4sz5E9SZv-1" value="&lt;font style=&quot;font-size: 18px;&quot;&gt;artist&lt;/font&gt;" style="rounded=0;whiteSpace=wrap;html=1;" parent="1" vertex="1">
          <mxGeometry x="60" y="530" width="150" height="60" as="geometry" />
        </mxCell>
        <mxCell id="mLOQmlMNwlD4sz5E9SZv-2" value="&lt;font style=&quot;font-size: 18px;&quot;&gt;opener&lt;/font&gt;" style="rounded=0;whiteSpace=wrap;html=1;" parent="1" vertex="1">
          <mxGeometry x="60" y="730" width="150" height="60" as="geometry" />
        </mxCell>
        <mxCell id="mLOQmlMNwlD4sz5E9SZv-27" style="edgeStyle=orthogonalEdgeStyle;rounded=0;orthogonalLoop=1;jettySize=auto;html=1;exitX=1;exitY=0.5;exitDx=0;exitDy=0;entryX=0;entryY=0.5;entryDx=0;entryDy=0;endArrow=none;endFill=0;" parent="1" source="mLOQmlMNwlD4sz5E9SZv-3" target="mLOQmlMNwlD4sz5E9SZv-26" edge="1">
          <mxGeometry relative="1" as="geometry" />
        </mxCell>
        <mxCell id="mLOQmlMNwlD4sz5E9SZv-84" style="edgeStyle=orthogonalEdgeStyle;rounded=0;orthogonalLoop=1;jettySize=auto;html=1;exitX=0.5;exitY=1;exitDx=0;exitDy=0;entryX=0.5;entryY=0;entryDx=0;entryDy=0;endArrow=none;endFill=0;" parent="1" source="mLOQmlMNwlD4sz5E9SZv-3" target="mLOQmlMNwlD4sz5E9SZv-30" edge="1">
          <mxGeometry relative="1" as="geometry" />
        </mxCell>
        <mxCell id="mLOQmlMNwlD4sz5E9SZv-3" value="&lt;font style=&quot;font-size: 18px;&quot;&gt;headliner&lt;/font&gt;" style="rounded=0;whiteSpace=wrap;html=1;" parent="1" vertex="1">
          <mxGeometry x="-280" y="530" width="150" height="60" as="geometry" />
        </mxCell>
        <mxCell id="mLOQmlMNwlD4sz5E9SZv-4" value="&lt;font style=&quot;font-size: 18px;&quot;&gt;tour&lt;/font&gt;" style="rounded=0;whiteSpace=wrap;html=1;" parent="1" vertex="1">
          <mxGeometry x="-280" y="740" width="150" height="60" as="geometry" />
        </mxCell>
        <mxCell id="mLOQmlMNwlD4sz5E9SZv-5" value="&lt;font style=&quot;font-size: 18px;&quot;&gt;genre&lt;/font&gt;" style="rounded=0;whiteSpace=wrap;html=1;" parent="1" vertex="1">
          <mxGeometry x="660" y="530" width="150" height="60" as="geometry" />
        </mxCell>
        <mxCell id="mLOQmlMNwlD4sz5E9SZv-7" value="&lt;font style=&quot;font-size: 15px;&quot;&gt;artist_genre&lt;/font&gt;" style="shape=associativeEntity;whiteSpace=wrap;html=1;align=center;" parent="1" vertex="1">
          <mxGeometry x="370" y="530" width="140" height="60" as="geometry" />
        </mxCell>
        <mxCell id="mLOQmlMNwlD4sz5E9SZv-21" style="edgeStyle=orthogonalEdgeStyle;rounded=0;orthogonalLoop=1;jettySize=auto;html=1;exitX=0.5;exitY=1;exitDx=0;exitDy=0;entryX=0.5;entryY=0;entryDx=0;entryDy=0;endArrow=none;endFill=0;" parent="1" source="mLOQmlMNwlD4sz5E9SZv-9" target="mLOQmlMNwlD4sz5E9SZv-20" edge="1">
          <mxGeometry relative="1" as="geometry" />
        </mxCell>
        <mxCell id="mLOQmlMNwlD4sz5E9SZv-9" value="&lt;font style=&quot;font-size: 18px;&quot;&gt;album&lt;/font&gt;" style="rounded=0;whiteSpace=wrap;html=1;" parent="1" vertex="1">
          <mxGeometry x="60" y="350" width="150" height="60" as="geometry" />
        </mxCell>
        <mxCell id="mLOQmlMNwlD4sz5E9SZv-55" style="edgeStyle=orthogonalEdgeStyle;rounded=0;orthogonalLoop=1;jettySize=auto;html=1;exitX=0.5;exitY=1;exitDx=0;exitDy=0;entryX=0.5;entryY=0;entryDx=0;entryDy=0;endArrow=none;endFill=0;" parent="1" source="mLOQmlMNwlD4sz5E9SZv-10" target="mLOQmlMNwlD4sz5E9SZv-53" edge="1">
          <mxGeometry relative="1" as="geometry" />
        </mxCell>
        <mxCell id="mLOQmlMNwlD4sz5E9SZv-10" value="&lt;font style=&quot;font-size: 18px;&quot;&gt;single&lt;/font&gt;" style="rounded=0;whiteSpace=wrap;html=1;" parent="1" vertex="1">
          <mxGeometry x="55" y="150" width="150" height="40" as="geometry" />
        </mxCell>
        <mxCell id="mLOQmlMNwlD4sz5E9SZv-11" value="&lt;font style=&quot;font-size: 18px;&quot;&gt;MA_venue&lt;/font&gt;" style="rounded=0;whiteSpace=wrap;html=1;" parent="1" vertex="1">
          <mxGeometry x="-545" y="930" width="150" height="60" as="geometry" />
        </mxCell>
        <mxCell id="mLOQmlMNwlD4sz5E9SZv-35" style="edgeStyle=orthogonalEdgeStyle;rounded=0;orthogonalLoop=1;jettySize=auto;html=1;exitX=1;exitY=0.5;exitDx=0;exitDy=0;entryX=0;entryY=0.5;entryDx=0;entryDy=0;endArrow=none;endFill=0;" parent="1" source="mLOQmlMNwlD4sz5E9SZv-12" target="mLOQmlMNwlD4sz5E9SZv-33" edge="1">
          <mxGeometry relative="1" as="geometry" />
        </mxCell>
        <mxCell id="mLOQmlMNwlD4sz5E9SZv-12" value="&lt;font style=&quot;font-size: 18px;&quot;&gt;customer&lt;/font&gt;" style="rounded=0;whiteSpace=wrap;html=1;" parent="1" vertex="1">
          <mxGeometry x="-890" y="740" width="150" height="60" as="geometry" />
        </mxCell>
        <mxCell id="mLOQmlMNwlD4sz5E9SZv-14" style="edgeStyle=orthogonalEdgeStyle;rounded=0;orthogonalLoop=1;jettySize=auto;html=1;entryX=0;entryY=0.5;entryDx=0;entryDy=0;endArrow=none;endFill=0;" parent="1" source="mLOQmlMNwlD4sz5E9SZv-13" target="mLOQmlMNwlD4sz5E9SZv-7" edge="1">
          <mxGeometry relative="1" as="geometry" />
        </mxCell>
        <mxCell id="mLOQmlMNwlD4sz5E9SZv-13" value="&lt;font style=&quot;font-size: 14px;&quot;&gt;has&lt;/font&gt;" style="rhombus;whiteSpace=wrap;html=1;" parent="1" vertex="1">
          <mxGeometry x="260" y="532.5" width="60" height="55" as="geometry" />
        </mxCell>
        <mxCell id="mLOQmlMNwlD4sz5E9SZv-16" value="" style="endArrow=none;html=1;rounded=0;exitX=1;exitY=0.5;exitDx=0;exitDy=0;entryX=0;entryY=0.5;entryDx=0;entryDy=0;" parent="1" source="mLOQmlMNwlD4sz5E9SZv-7" target="mLOQmlMNwlD4sz5E9SZv-17" edge="1">
          <mxGeometry width="50" height="50" relative="1" as="geometry">
            <mxPoint x="520" y="560" as="sourcePoint" />
            <mxPoint x="550" y="560" as="targetPoint" />
          </mxGeometry>
        </mxCell>
        <mxCell id="mLOQmlMNwlD4sz5E9SZv-18" style="edgeStyle=orthogonalEdgeStyle;rounded=0;orthogonalLoop=1;jettySize=auto;html=1;exitX=1;exitY=0.5;exitDx=0;exitDy=0;entryX=0;entryY=0.5;entryDx=0;entryDy=0;endArrow=none;endFill=0;" parent="1" source="mLOQmlMNwlD4sz5E9SZv-17" target="mLOQmlMNwlD4sz5E9SZv-5" edge="1">
          <mxGeometry relative="1" as="geometry" />
        </mxCell>
        <mxCell id="mLOQmlMNwlD4sz5E9SZv-17" value="&lt;font style=&quot;font-size: 9px;&quot;&gt;belongs to&lt;/font&gt;" style="rhombus;whiteSpace=wrap;html=1;" parent="1" vertex="1">
          <mxGeometry x="560" y="532.5" width="60" height="55" as="geometry" />
        </mxCell>
        <mxCell id="mLOQmlMNwlD4sz5E9SZv-24" style="edgeStyle=orthogonalEdgeStyle;rounded=0;orthogonalLoop=1;jettySize=auto;html=1;exitX=0.5;exitY=1;exitDx=0;exitDy=0;entryX=0.5;entryY=0;entryDx=0;entryDy=0;endArrow=none;endFill=0;" parent="1" source="mLOQmlMNwlD4sz5E9SZv-19" target="mLOQmlMNwlD4sz5E9SZv-2" edge="1">
          <mxGeometry relative="1" as="geometry" />
        </mxCell>
        <mxCell id="mLOQmlMNwlD4sz5E9SZv-19" value="&lt;font style=&quot;font-size: 14px;&quot;&gt;is&lt;/font&gt;" style="rhombus;whiteSpace=wrap;html=1;" parent="1" vertex="1">
          <mxGeometry x="105" y="630" width="60" height="55" as="geometry" />
        </mxCell>
        <mxCell id="mLOQmlMNwlD4sz5E9SZv-22" style="edgeStyle=orthogonalEdgeStyle;rounded=0;orthogonalLoop=1;jettySize=auto;html=1;exitX=0.5;exitY=1;exitDx=0;exitDy=0;endArrow=none;endFill=0;" parent="1" source="mLOQmlMNwlD4sz5E9SZv-20" target="mLOQmlMNwlD4sz5E9SZv-1" edge="1">
          <mxGeometry relative="1" as="geometry" />
        </mxCell>
        <mxCell id="mLOQmlMNwlD4sz5E9SZv-20" value="&lt;font style=&quot;font-size: 14px;&quot;&gt;has&lt;/font&gt;" style="rhombus;whiteSpace=wrap;html=1;" parent="1" vertex="1">
          <mxGeometry x="105" y="440" width="60" height="55" as="geometry" />
        </mxCell>
        <mxCell id="mLOQmlMNwlD4sz5E9SZv-28" style="edgeStyle=orthogonalEdgeStyle;rounded=0;orthogonalLoop=1;jettySize=auto;html=1;exitX=1;exitY=0.5;exitDx=0;exitDy=0;entryX=0;entryY=0.5;entryDx=0;entryDy=0;endArrow=none;endFill=0;" parent="1" source="mLOQmlMNwlD4sz5E9SZv-26" target="mLOQmlMNwlD4sz5E9SZv-1" edge="1">
          <mxGeometry relative="1" as="geometry" />
        </mxCell>
        <mxCell id="mLOQmlMNwlD4sz5E9SZv-26" value="&lt;font style=&quot;font-size: 14px;&quot;&gt;is&lt;/font&gt;" style="rhombus;whiteSpace=wrap;html=1;" parent="1" vertex="1">
          <mxGeometry x="-60" y="532.5" width="60" height="55" as="geometry" />
        </mxCell>
        <mxCell id="mLOQmlMNwlD4sz5E9SZv-85" style="edgeStyle=orthogonalEdgeStyle;rounded=0;orthogonalLoop=1;jettySize=auto;html=1;exitX=0.5;exitY=1;exitDx=0;exitDy=0;entryX=0.5;entryY=0;entryDx=0;entryDy=0;endArrow=none;endFill=0;" parent="1" source="mLOQmlMNwlD4sz5E9SZv-30" target="mLOQmlMNwlD4sz5E9SZv-4" edge="1">
          <mxGeometry relative="1" as="geometry" />
        </mxCell>
        <mxCell id="mLOQmlMNwlD4sz5E9SZv-30" value="&lt;font style=&quot;font-size: 14px;&quot;&gt;has&lt;/font&gt;" style="rhombus;whiteSpace=wrap;html=1;" parent="1" vertex="1">
          <mxGeometry x="-235" y="645" width="60" height="55" as="geometry" />
        </mxCell>
        <mxCell id="mLOQmlMNwlD4sz5E9SZv-33" value="&lt;font style=&quot;font-size: 14px;&quot;&gt;has&lt;/font&gt;" style="rhombus;whiteSpace=wrap;html=1;" parent="1" vertex="1">
          <mxGeometry x="-660" y="742.5" width="60" height="55" as="geometry" />
        </mxCell>
        <mxCell id="mLOQmlMNwlD4sz5E9SZv-40" value="M" style="text;strokeColor=none;align=center;fillColor=none;html=1;verticalAlign=middle;whiteSpace=wrap;rounded=0;" parent="1" vertex="1">
          <mxGeometry x="-520" y="900" width="30" height="30" as="geometry" />
        </mxCell>
        <mxCell id="mLOQmlMNwlD4sz5E9SZv-41" value="1" style="text;strokeColor=none;align=center;fillColor=none;html=1;verticalAlign=middle;whiteSpace=wrap;rounded=0;" parent="1" vertex="1">
          <mxGeometry x="-520" y="800" width="30" height="30" as="geometry" />
        </mxCell>
        <mxCell id="mLOQmlMNwlD4sz5E9SZv-43" value="1" style="text;strokeColor=none;align=center;fillColor=none;html=1;verticalAlign=middle;whiteSpace=wrap;rounded=0;" parent="1" vertex="1">
          <mxGeometry x="-735" y="740" width="30" height="30" as="geometry" />
        </mxCell>
        <mxCell id="mLOQmlMNwlD4sz5E9SZv-44" value="M" style="text;strokeColor=none;align=center;fillColor=none;html=1;verticalAlign=middle;whiteSpace=wrap;rounded=0;" parent="1" vertex="1">
          <mxGeometry x="-400" y="740" width="30" height="30" as="geometry" />
        </mxCell>
        <mxCell id="mLOQmlMNwlD4sz5E9SZv-45" value="1" style="text;strokeColor=none;align=center;fillColor=none;html=1;verticalAlign=middle;whiteSpace=wrap;rounded=0;" parent="1" vertex="1">
          <mxGeometry x="-235" y="587.5" width="30" height="30" as="geometry" />
        </mxCell>
        <mxCell id="mLOQmlMNwlD4sz5E9SZv-46" value="1" style="text;strokeColor=none;align=center;fillColor=none;html=1;verticalAlign=middle;whiteSpace=wrap;rounded=0;" parent="1" vertex="1">
          <mxGeometry x="-235" y="710" width="30" height="30" as="geometry" />
        </mxCell>
        <mxCell id="mLOQmlMNwlD4sz5E9SZv-47" value="1" style="text;strokeColor=none;align=center;fillColor=none;html=1;verticalAlign=middle;whiteSpace=wrap;rounded=0;" parent="1" vertex="1">
          <mxGeometry x="-130" y="530" width="30" height="30" as="geometry" />
        </mxCell>
        <mxCell id="mLOQmlMNwlD4sz5E9SZv-48" value="1" style="text;strokeColor=none;align=center;fillColor=none;html=1;verticalAlign=middle;whiteSpace=wrap;rounded=0;" parent="1" vertex="1">
          <mxGeometry x="30" y="530" width="30" height="30" as="geometry" />
        </mxCell>
        <mxCell id="mLOQmlMNwlD4sz5E9SZv-49" value="1" style="text;strokeColor=none;align=center;fillColor=none;html=1;verticalAlign=middle;whiteSpace=wrap;rounded=0;" parent="1" vertex="1">
          <mxGeometry x="105" y="590" width="30" height="30" as="geometry" />
        </mxCell>
        <mxCell id="mLOQmlMNwlD4sz5E9SZv-50" value="1" style="text;strokeColor=none;align=center;fillColor=none;html=1;verticalAlign=middle;whiteSpace=wrap;rounded=0;" parent="1" vertex="1">
          <mxGeometry x="105" y="700" width="30" height="30" as="geometry" />
        </mxCell>
        <mxCell id="mLOQmlMNwlD4sz5E9SZv-51" value="1" style="text;strokeColor=none;align=center;fillColor=none;html=1;verticalAlign=middle;whiteSpace=wrap;rounded=0;" parent="1" vertex="1">
          <mxGeometry x="105" y="502.5" width="30" height="30" as="geometry" />
        </mxCell>
        <mxCell id="mLOQmlMNwlD4sz5E9SZv-52" value="M" style="text;strokeColor=none;align=center;fillColor=none;html=1;verticalAlign=middle;whiteSpace=wrap;rounded=0;" parent="1" vertex="1">
          <mxGeometry x="100" y="407.5" width="30" height="30" as="geometry" />
        </mxCell>
        <mxCell id="mLOQmlMNwlD4sz5E9SZv-53" value="&lt;font style=&quot;font-size: 14px;&quot;&gt;has&lt;/font&gt;" style="rhombus;whiteSpace=wrap;html=1;" parent="1" vertex="1">
          <mxGeometry x="100" y="250" width="60" height="50" as="geometry" />
        </mxCell>
        <mxCell id="mLOQmlMNwlD4sz5E9SZv-54" style="edgeStyle=orthogonalEdgeStyle;rounded=0;orthogonalLoop=1;jettySize=auto;html=1;exitX=0.5;exitY=1;exitDx=0;exitDy=0;entryX=0.464;entryY=-0.074;entryDx=0;entryDy=0;entryPerimeter=0;endArrow=none;endFill=0;" parent="1" source="mLOQmlMNwlD4sz5E9SZv-53" target="mLOQmlMNwlD4sz5E9SZv-9" edge="1">
          <mxGeometry relative="1" as="geometry" />
        </mxCell>
        <mxCell id="mLOQmlMNwlD4sz5E9SZv-57" value="1" style="text;strokeColor=none;align=center;fillColor=none;html=1;verticalAlign=middle;whiteSpace=wrap;rounded=0;" parent="1" vertex="1">
          <mxGeometry x="100" y="322.5" width="30" height="30" as="geometry" />
        </mxCell>
        <mxCell id="mLOQmlMNwlD4sz5E9SZv-58" value="M" style="text;strokeColor=none;align=center;fillColor=none;html=1;verticalAlign=middle;whiteSpace=wrap;rounded=0;" parent="1" vertex="1">
          <mxGeometry x="100" y="190" width="30" height="30" as="geometry" />
        </mxCell>
        <mxCell id="mLOQmlMNwlD4sz5E9SZv-59" value="1" style="text;strokeColor=none;align=center;fillColor=none;html=1;verticalAlign=middle;whiteSpace=wrap;rounded=0;" parent="1" vertex="1">
          <mxGeometry x="630" y="530" width="30" height="30" as="geometry" />
        </mxCell>
        <mxCell id="mLOQmlMNwlD4sz5E9SZv-60" value="1" style="text;strokeColor=none;align=center;fillColor=none;html=1;verticalAlign=middle;whiteSpace=wrap;rounded=0;" parent="1" vertex="1">
          <mxGeometry x="210" y="532.5" width="30" height="30" as="geometry" />
        </mxCell>
        <mxCell id="mLOQmlMNwlD4sz5E9SZv-62" value="M" style="text;strokeColor=none;align=center;fillColor=none;html=1;verticalAlign=middle;whiteSpace=wrap;rounded=0;" parent="1" vertex="1">
          <mxGeometry x="340" y="530" width="30" height="30" as="geometry" />
        </mxCell>
        <mxCell id="mLOQmlMNwlD4sz5E9SZv-63" value="M" style="text;strokeColor=none;align=center;fillColor=none;html=1;verticalAlign=middle;whiteSpace=wrap;rounded=0;" parent="1" vertex="1">
          <mxGeometry x="510" y="530" width="30" height="30" as="geometry" />
        </mxCell>
        <mxCell id="mLOQmlMNwlD4sz5E9SZv-64" value="(1,N)" style="text;strokeColor=none;align=center;fillColor=none;html=1;verticalAlign=middle;whiteSpace=wrap;rounded=0;" parent="1" vertex="1">
          <mxGeometry x="220" y="562.5" width="30" height="30" as="geometry" />
        </mxCell>
        <mxCell id="mLOQmlMNwlD4sz5E9SZv-65" value="(1,N)" style="text;strokeColor=none;align=center;fillColor=none;html=1;verticalAlign=middle;whiteSpace=wrap;rounded=0;" parent="1" vertex="1">
          <mxGeometry x="630" y="560" width="30" height="30" as="geometry" />
        </mxCell>
        <mxCell id="mLOQmlMNwlD4sz5E9SZv-66" value="(1,1)" style="text;strokeColor=none;align=center;fillColor=none;html=1;verticalAlign=middle;whiteSpace=wrap;rounded=0;" parent="1" vertex="1">
          <mxGeometry x="520" y="562.5" width="30" height="30" as="geometry" />
        </mxCell>
        <mxCell id="mLOQmlMNwlD4sz5E9SZv-67" value="(1,1)" style="text;strokeColor=none;align=center;fillColor=none;html=1;verticalAlign=middle;whiteSpace=wrap;rounded=0;" parent="1" vertex="1">
          <mxGeometry x="340" y="562.5" width="30" height="30" as="geometry" />
        </mxCell>
        <mxCell id="mLOQmlMNwlD4sz5E9SZv-68" value="(1,1)" style="text;strokeColor=none;align=center;fillColor=none;html=1;verticalAlign=middle;whiteSpace=wrap;rounded=0;" parent="1" vertex="1">
          <mxGeometry x="140" y="592.5" width="30" height="30" as="geometry" />
        </mxCell>
        <mxCell id="mLOQmlMNwlD4sz5E9SZv-69" value="(0,1)" style="text;strokeColor=none;align=center;fillColor=none;html=1;verticalAlign=middle;whiteSpace=wrap;rounded=0;" parent="1" vertex="1">
          <mxGeometry x="-120" y="562.5" width="30" height="30" as="geometry" />
        </mxCell>
        <mxCell id="mLOQmlMNwlD4sz5E9SZv-70" value="(0,1)" style="text;strokeColor=none;align=center;fillColor=none;html=1;verticalAlign=middle;whiteSpace=wrap;rounded=0;" parent="1" vertex="1">
          <mxGeometry x="140" y="700" width="30" height="30" as="geometry" />
        </mxCell>
        <mxCell id="mLOQmlMNwlD4sz5E9SZv-72" value="(1,1)" style="text;strokeColor=none;align=center;fillColor=none;html=1;verticalAlign=middle;whiteSpace=wrap;rounded=0;" parent="1" vertex="1">
          <mxGeometry x="20" y="562.5" width="30" height="30" as="geometry" />
        </mxCell>
        <mxCell id="mLOQmlMNwlD4sz5E9SZv-73" value="(1,N)" style="text;strokeColor=none;align=center;fillColor=none;html=1;verticalAlign=middle;whiteSpace=wrap;rounded=0;" parent="1" vertex="1">
          <mxGeometry x="150" y="500" width="30" height="30" as="geometry" />
        </mxCell>
        <mxCell id="mLOQmlMNwlD4sz5E9SZv-74" value="(1,1)" style="text;strokeColor=none;align=center;fillColor=none;html=1;verticalAlign=middle;whiteSpace=wrap;rounded=0;" parent="1" vertex="1">
          <mxGeometry x="140" y="410" width="30" height="30" as="geometry" />
        </mxCell>
        <mxCell id="mLOQmlMNwlD4sz5E9SZv-75" value="(1,N)" style="text;strokeColor=none;align=center;fillColor=none;html=1;verticalAlign=middle;whiteSpace=wrap;rounded=0;" parent="1" vertex="1">
          <mxGeometry x="150" y="320" width="30" height="30" as="geometry" />
        </mxCell>
        <mxCell id="mLOQmlMNwlD4sz5E9SZv-76" value="(1,1)" style="text;strokeColor=none;align=center;fillColor=none;html=1;verticalAlign=middle;whiteSpace=wrap;rounded=0;" parent="1" vertex="1">
          <mxGeometry x="135" y="190" width="30" height="30" as="geometry" />
        </mxCell>
        <mxCell id="mLOQmlMNwlD4sz5E9SZv-78" value="(1,1)" style="text;strokeColor=none;align=center;fillColor=none;html=1;verticalAlign=middle;whiteSpace=wrap;rounded=0;" parent="1" vertex="1">
          <mxGeometry x="-200" y="710" width="30" height="30" as="geometry" />
        </mxCell>
        <mxCell id="mLOQmlMNwlD4sz5E9SZv-79" value="(1,1)" style="text;strokeColor=none;align=center;fillColor=none;html=1;verticalAlign=middle;whiteSpace=wrap;rounded=0;" parent="1" vertex="1">
          <mxGeometry x="-190" y="592.5" width="30" height="30" as="geometry" />
        </mxCell>
        <mxCell id="mLOQmlMNwlD4sz5E9SZv-80" value="(0,1)" style="text;strokeColor=none;align=center;fillColor=none;html=1;verticalAlign=middle;whiteSpace=wrap;rounded=0;" parent="1" vertex="1">
          <mxGeometry x="-735" y="770" width="30" height="30" as="geometry" />
        </mxCell>
        <mxCell id="mLOQmlMNwlD4sz5E9SZv-81" value="(1,1)" style="text;strokeColor=none;align=center;fillColor=none;html=1;verticalAlign=middle;whiteSpace=wrap;rounded=0;" parent="1" vertex="1">
          <mxGeometry x="-320" y="770" width="30" height="30" as="geometry" />
        </mxCell>
        <mxCell id="mLOQmlMNwlD4sz5E9SZv-82" value="(1,1)" style="text;strokeColor=none;align=center;fillColor=none;html=1;verticalAlign=middle;whiteSpace=wrap;rounded=0;" parent="1" vertex="1">
          <mxGeometry x="-460" y="800" width="30" height="30" as="geometry" />
        </mxCell>
        <mxCell id="mLOQmlMNwlD4sz5E9SZv-83" value="(1,N)" style="text;strokeColor=none;align=center;fillColor=none;html=1;verticalAlign=middle;whiteSpace=wrap;rounded=0;" parent="1" vertex="1">
          <mxGeometry x="-455" y="900" width="30" height="30" as="geometry" />
        </mxCell>
        <mxCell id="ncN-Z8B0_PxYqI0Y3lKO-4" style="edgeStyle=orthogonalEdgeStyle;rounded=0;orthogonalLoop=1;jettySize=auto;html=1;exitX=0;exitY=0.5;exitDx=0;exitDy=0;entryX=1;entryY=0.5;entryDx=0;entryDy=0;endArrow=none;endFill=0;" parent="1" source="ncN-Z8B0_PxYqI0Y3lKO-2" target="mLOQmlMNwlD4sz5E9SZv-33" edge="1">
          <mxGeometry relative="1" as="geometry" />
        </mxCell>
        <mxCell id="ncN-Z8B0_PxYqI0Y3lKO-11" style="edgeStyle=orthogonalEdgeStyle;rounded=0;orthogonalLoop=1;jettySize=auto;html=1;exitX=1;exitY=0.5;exitDx=0;exitDy=0;endArrow=none;endFill=0;" parent="1" source="ncN-Z8B0_PxYqI0Y3lKO-2" target="ncN-Z8B0_PxYqI0Y3lKO-9" edge="1">
          <mxGeometry relative="1" as="geometry" />
        </mxCell>
        <mxCell id="4kciy9Xvx1kbIcJmJhQf-2" style="edgeStyle=orthogonalEdgeStyle;rounded=0;orthogonalLoop=1;jettySize=auto;html=1;exitX=0.5;exitY=1;exitDx=0;exitDy=0;endArrow=none;endFill=0;" edge="1" parent="1" source="ncN-Z8B0_PxYqI0Y3lKO-2" target="4kciy9Xvx1kbIcJmJhQf-1">
          <mxGeometry relative="1" as="geometry" />
        </mxCell>
        <mxCell id="ncN-Z8B0_PxYqI0Y3lKO-2" value="&lt;font style=&quot;font-size: 15px;&quot;&gt;tour_attendance&lt;/font&gt;" style="shape=associativeEntity;whiteSpace=wrap;html=1;align=center;" parent="1" vertex="1">
          <mxGeometry x="-540" y="740" width="140" height="60" as="geometry" />
        </mxCell>
        <mxCell id="ncN-Z8B0_PxYqI0Y3lKO-5" value="1" style="text;strokeColor=none;align=center;fillColor=none;html=1;verticalAlign=middle;whiteSpace=wrap;rounded=0;" parent="1" vertex="1">
          <mxGeometry x="-310" y="740" width="30" height="30" as="geometry" />
        </mxCell>
        <mxCell id="ncN-Z8B0_PxYqI0Y3lKO-6" value="M" style="text;strokeColor=none;align=center;fillColor=none;html=1;verticalAlign=middle;whiteSpace=wrap;rounded=0;" parent="1" vertex="1">
          <mxGeometry x="-570" y="742.5" width="30" height="30" as="geometry" />
        </mxCell>
        <mxCell id="ncN-Z8B0_PxYqI0Y3lKO-7" value="(1,M)" style="text;strokeColor=none;align=center;fillColor=none;html=1;verticalAlign=middle;whiteSpace=wrap;rounded=0;" parent="1" vertex="1">
          <mxGeometry x="-570" y="770" width="30" height="30" as="geometry" />
        </mxCell>
        <mxCell id="ncN-Z8B0_PxYqI0Y3lKO-8" value="(1,N)" style="text;strokeColor=none;align=center;fillColor=none;html=1;verticalAlign=middle;whiteSpace=wrap;rounded=0;" parent="1" vertex="1">
          <mxGeometry x="-400" y="772.5" width="30" height="30" as="geometry" />
        </mxCell>
        <mxCell id="ncN-Z8B0_PxYqI0Y3lKO-12" style="edgeStyle=orthogonalEdgeStyle;rounded=0;orthogonalLoop=1;jettySize=auto;html=1;exitX=1;exitY=0.5;exitDx=0;exitDy=0;endArrow=none;endFill=0;" parent="1" source="ncN-Z8B0_PxYqI0Y3lKO-9" target="mLOQmlMNwlD4sz5E9SZv-4" edge="1">
          <mxGeometry relative="1" as="geometry" />
        </mxCell>
        <mxCell id="ncN-Z8B0_PxYqI0Y3lKO-9" value="&lt;font style=&quot;font-size: 14px;&quot;&gt;has&lt;/font&gt;" style="rhombus;whiteSpace=wrap;html=1;" parent="1" vertex="1">
          <mxGeometry x="-370" y="740" width="60" height="55" as="geometry" />
        </mxCell>
        <mxCell id="4kciy9Xvx1kbIcJmJhQf-3" style="edgeStyle=orthogonalEdgeStyle;rounded=0;orthogonalLoop=1;jettySize=auto;html=1;exitX=0.5;exitY=1;exitDx=0;exitDy=0;entryX=0.5;entryY=0;entryDx=0;entryDy=0;endArrow=none;endFill=0;" edge="1" parent="1" source="4kciy9Xvx1kbIcJmJhQf-1" target="mLOQmlMNwlD4sz5E9SZv-11">
          <mxGeometry relative="1" as="geometry" />
        </mxCell>
        <mxCell id="4kciy9Xvx1kbIcJmJhQf-1" value="&lt;font style=&quot;font-size: 14px;&quot;&gt;will attend at&lt;/font&gt;" style="rhombus;whiteSpace=wrap;html=1;" vertex="1" parent="1">
          <mxGeometry x="-500" y="840" width="60" height="55" as="geometry" />
        </mxCell>
      </root>
    </mxGraphModel>
  </diagram>
</mxfile>
